<svg width="22" height="22" viewBox="0 0 22 22" fill="none" xmlns="http://www.w3.org/2000/svg">
<path fill-rule="evenodd" clip-rule="evenodd" d="M9.25 0C4.14136 0 0 4.14138 0 9.25002C0 14.3587 4.14136 18.5 9.25 18.5C14.3586 18.5 18.5 14.3587 18.5 9.25002C18.5 4.14138 14.3586 0 9.25 0ZM1.5 9.25002C1.5 4.96981 4.96979 1.5 9.25 1.5C13.5302 1.5 17 4.96981 17 9.25002C17 13.5302 13.5302 17 9.25 17C4.96979 17 1.5 13.5302 1.5 9.25002Z" fill="white"/>
<path d="M20.7197 21.7803L16.1254 17.1861C16.5036 16.8581 16.8581 16.5036 17.1861 16.1254L21.7803 20.7197C22.0732 21.0126 22.0732 21.4874 21.7803 21.7803C21.4874 22.0732 21.0126 22.0732 20.7197 21.7803Z" fill="white"/>
</svg>
